<svg xmlns="http://www.w3.org/2000/svg" viewBox="0 0 100 100" width="256" height="256">
  <defs>
    <linearGradient id="goldFace" x1="0" y1="0" x2="1" y2="1">
      <stop offset="0%" stop-color="#ffe9a0"/>
      <stop offset="45%" stop-color="#f0c75e"/>
      <stop offset="100%" stop-color="#b8860b"/>
    </linearGradient>
    <linearGradient id="goldRim" x1="0" y1="0" x2="0" y2="1">
      <stop offset="0%" stop-color="#fff3c4"/>
      <stop offset="50%" stop-color="#d4a017"/>
      <stop offset="100%" stop-color="#8a6508"/>
    </linearGradient>
    <radialGradient id="pip" cx="35%" cy="30%" r="70%">
      <stop offset="0%" stop-color="#ffffff"/>
      <stop offset="55%" stop-color="#eef2f8"/>
      <stop offset="100%" stop-color="#a8b4c8"/>
    </radialGradient>
    <filter id="pipSoft" x="-30%" y="-30%" width="160%" height="160%">
      <feDropShadow dx="0" dy="1.2" stdDeviation="1.1" flood-color="#000" flood-opacity="0.35"/>
    </filter>
    <filter id="glow" x="-20%" y="-20%" width="140%" height="140%">
      <feDropShadow dx="0" dy="3" stdDeviation="2.5" flood-color="#000" flood-opacity="0.4"/>
    </filter>
    <linearGradient id="shine" x1="0" y1="0" x2="0" y2="1">
      <stop offset="0%" stop-color="#fff" stop-opacity="0.35"/>
      <stop offset="40%" stop-color="#fff" stop-opacity="0"/>
    </linearGradient>
  </defs>
  <rect width="100" height="100" rx="18" fill="#0a1424"/>
  <rect x="4" y="4" width="92" height="92" rx="16" fill="url(#goldRim)" filter="url(#glow)"/>
  <rect x="10" y="10" width="80" height="80" rx="12" fill="#122038"/>
  <rect x="14" y="14" width="72" height="72" rx="10" fill="url(#goldFace)"/>
  <rect x="14" y="14" width="72" height="72" rx="10" fill="url(#shine)"/>
  <path d="M18 22 Q22 16 30 18 M70 18 Q78 16 82 22 M18 78 Q22 84 30 82 M70 82 Q78 84 82 78" fill="none" stroke="#c9a227" stroke-width="1.2" opacity="0.7"/>
  <circle cx='30' cy='30' r='9' fill='url(#pip)' filter='url(#pipSoft)'/>
    <circle cx='70' cy='70' r='9' fill='url(#pip)' filter='url(#pipSoft)'/>
</svg>
